<svg width="39" height="39" viewBox="0 0 39 39" fill="none" xmlns="http://www.w3.org/2000/svg">
<path d="M25.2756 3.50823C27.7152 8.52767 33.5064 9.98971 38.7867 9.99027L38.3645 0.672363L25.2756 3.50823Z" fill="#1AE2C5"/>
<path d="M1.63104 31.0569C3.15907 38.638 11.6297 39.6881 18.0977 37.944C15.1869 31.9587 7.66968 31.0569 1.63104 31.0569Z" fill="#1CE68B"/>
<path d="M30.3423 11.8224C28.058 12.2049 26.7174 13.949 25.6781 15.3499C23.0211 19.2761 18.2895 24.2738 17.5151 29.0313C17.0587 31.8343 19.359 36.2446 22.7422 36.023C30.0547 35.5441 36.9079 28.489 38.1838 21.739C38.5596 19.7506 38.9683 15.166 37.5845 13.7894C36.2447 12.4567 33.4177 11.3075 30.3423 11.8224Z" fill="#1AE2C5"/>
<path d="M0.786621 27.816C4.36538 28.2499 8.86501 28.9778 12.1866 27.2417C16.0272 25.2345 18.3964 20.4431 20.844 16.8055C23.1962 13.1742 25.9971 9.993 22.9875 6.84189C20.4103 4.14358 16.1413 6.41201 13.4533 8.09133C6.70834 12.3052 0.858399 19.5162 0.786621 27.816Z" fill="#1CE68B"/>
</svg>
